<?xml version="1.0" standalone="no"?>
<!DOCTYPE svg PUBLIC "-//W3C//DTD SVG 20010904//EN"
 "http://www.w3.org/TR/2001/REC-SVG-20010904/DTD/svg10.dtd">
<svg version="1.0" xmlns="http://www.w3.org/2000/svg"
 width="200.000000pt" height="200.000000pt" viewBox="0 0 200.000000 200.000000"
 preserveAspectRatio="xMidYMid meet">

<g transform="translate(0.000000,200.000000) scale(0.100000,-0.100000)"
fill="#000000" stroke="none">
<path d="M0 1000 l0 -1000 1000 0 1000 0 0 1000 0 1000 -1000 0 -1000 0 0
-1000z m1377 494 c-3 -3 -12 -4 -19 -1 -8 3 -5 6 6 6 11 1 17 -2 13 -5z m-72
-18 c-16 -8 -52 -37 -80 -65 -27 -28 -56 -51 -65 -50 -13 0 -13 1 0 6 8 3 43
32 77 64 34 33 70 59 80 59 12 -1 8 -5 -12 -14z m103 -37 c-5 -46 -11 -56 -67
-113 -56 -56 -62 -67 -68 -115 -4 -35 -14 -63 -31 -82 l-24 -29 -32 19 -31 19
-42 -36 c-23 -21 -55 -54 -71 -75 -27 -33 -29 -41 -20 -75 5 -20 12 -47 15
-59 3 -11 13 -23 23 -26 11 -3 28 -19 38 -37 12 -19 23 -27 26 -21 14 22 77
12 111 -18 l33 -29 -31 -29 c-84 -79 -172 -113 -287 -113 -355 0 -541 399
-318 683 17 20 38 42 47 47 16 8 17 5 11 -35 -7 -44 -6 -45 27 -56 35 -11 69
-60 59 -85 -3 -8 4 -19 16 -25 12 -7 31 -20 42 -30 13 -13 30 -17 50 -15 38 5
66 16 66 25 0 4 12 13 26 20 15 7 24 17 21 25 -3 8 7 26 23 41 28 26 28 29 13
54 l-15 26 20 -25 21 -25 -30 -31 c-19 -19 -27 -34 -20 -38 6 -4 -2 -25 -23
-54 -39 -55 -50 -91 -31 -98 26 -10 115 56 115 85 0 8 10 25 22 38 21 23 21
23 2 45 -11 13 -12 18 -3 11 13 -10 22 -6 55 28 21 22 60 52 86 65 47 24 69
44 48 44 -7 0 -8 6 -2 16 13 23 115 131 126 133 5 0 6 -22 4 -50z m-498 -62
c12 -4 11 -6 -2 -6 -10 -1 -18 -6 -18 -11 0 -7 -5 -6 -13 2 -10 9 -11 15 -3
24 6 6 13 8 16 4 3 -4 12 -10 20 -13z m176 -27 c-16 -5 -38 -17 -50 -27 -12
-10 -9 -6 6 10 16 15 38 27 51 26 19 -1 18 -2 -7 -9z m-16 -154 c0 -2 -8 -10
-17 -17 -16 -13 -17 -12 -4 4 13 16 21 21 21 13z m-170 -10 c0 -3 -4 -8 -10
-11 -5 -3 -10 -1 -10 4 0 6 5 11 10 11 6 0 10 -2 10 -4z m-167 -653 c-21 -4
-23 -11 -25 -66 l-2 -62 -3 54 c-5 67 0 81 29 80 l23 -2 -22 -4z m-185 -65 l3
-58 -61 0 -60 0 0 60 0 61 58 -3 57 -3 3 -57z m420 0 l3 -58 -61 0 -60 0 0 60
0 61 58 -3 57 -3 3 -57z m-337 -6 c21 2 39 0 39 -4 0 -5 -18 -8 -40 -8 -57 0
-55 -27 3 -33 l42 -4 -47 -1 -48 -2 1 48 c1 26 4 36 6 24 4 -21 9 -24 44 -20z
m146 -29 c-2 -16 -4 -5 -4 22 0 28 2 40 4 28 2 -13 2 -35 0 -50z m226 52 c-3
-9 -8 -14 -10 -11 -3 3 -2 9 2 15 9 16 15 13 8 -4z m87 -10 c0 -23 -4 -25 -44
-25 -24 0 -47 -5 -49 -10 -3 -6 -4 -5 -3 2 1 8 21 14 45 16 37 3 42 6 38 23
-3 10 -1 19 4 19 5 0 9 -11 9 -25z m32 -15 l-4 -40 42 0 42 0 -4 40 c-2 22 0
40 5 40 4 0 7 -28 5 -62 l-3 -63 -38 -1 -37 -1 35 4 c51 6 46 31 -7 35 -39 3
-43 6 -46 31 -3 26 3 57 10 57 2 0 2 -18 0 -40z m121 20 c-5 -18 0 -20 37 -20
37 0 42 2 37 20 -3 11 -1 18 4 14 5 -3 9 -14 9 -25 0 -16 -7 -19 -45 -19 -33
0 -45 -4 -45 -14 0 -10 14 -16 45 -19 l45 -4 -47 1 -48 1 -3 43 c-2 23 1 42 6
42 6 0 8 -9 5 -20z m119 -17 c-5 -59 -10 -63 -11 -10 -1 26 3 47 7 47 4 0 6
-17 4 -37z m86 -19 l-3 -39 -5 47 c-3 26 -1 43 3 39 5 -5 7 -26 5 -47z m35 37
c-4 -17 1 -20 38 -23 36 -2 44 -7 44 -23 0 -16 -8 -21 -39 -23 -21 -2 -42 0
-47 5 -4 4 12 6 36 5 35 -3 45 -1 45 11 0 11 -12 17 -42 19 -36 2 -44 7 -46
26 -2 12 1 22 6 22 6 0 8 -9 5 -19z m-410 -68 c-13 -2 -35 -2 -50 0 -16 2 -5
4 22 4 28 0 40 -2 28 -4z"/>
<path d="M440 470 l0 -50 50 0 50 0 0 50 0 50 -50 0 -50 0 0 -50z"/>
<path d="M860 470 l0 -50 50 0 50 0 0 50 0 50 -50 0 -50 0 0 -50z"/>
</g>
</svg>
