<svg width="586.5688232421875px" height="135.2px" xmlns="http://www.w3.org/2000/svg" viewBox="-43.28441162109374 7.400000000000006 586.5688232421875 135.2" style="background: rgb(253, 253, 253);" preserveAspectRatio="xMidYMid"><defs><filter id="editing-jagged" x="-100%" y="-100%" width="300%" height="300%"><feTurbulence result="turb" baseFrequency="0.16" numOctaves="1" seed="1"></feTurbulence><feDisplacementMap in="SourceGraphic" in2="turb" scale="9.5"></feDisplacementMap></filter></defs><g filter="url(#editing-jagged)"><g transform="translate(42.1349772810936, 108.94500350952148)"><path d="M48.62-30.29L48.62-30.29L48.62-30.29Q48.62 0.80 14.89 0.80L14.89 0.80L14.89 0.80Q9.49 0.80 0.58-0.51L0.58-0.51L8.76-43.65L8.76-43.65Q9.34-46.57 9.71-48.25L9.71-48.25L9.71-48.25Q20.80-49.06 25.73-49.06L25.73-49.06L25.73-49.06Q30.66-49.06 35.19-48.03L35.19-48.03L35.19-48.03Q39.71-47.01 42.70-44.75L42.70-44.75L42.70-44.75Q48.62-40.30 48.62-30.29ZM33.58-33.00L33.58-33.00L33.58-33.00Q33.58-43.87 25.77-43.87L25.77-43.87L25.04-43.87L25.04-43.87Q24.67-43.87 24.31-43.80L24.31-43.80L16.79-4.60L16.79-4.60Q17.08-4.45 17.37-4.45L17.37-4.45L17.96-4.45L17.96-4.45Q20.66-4.45 23.47-6.13L23.47-6.13L23.47-6.13Q26.28-7.81 28.47-11.24L28.47-11.24L28.47-11.24Q33.58-19.20 33.58-33.00ZM81.91-12.34L81.91-12.34L81.91-12.34Q83.73-11.10 83.73-8.36L83.73-8.36L83.73-8.36Q83.73-5.62 82.34-3.87L82.34-3.87L82.34-3.87Q80.96-2.12 78.69-0.95L78.69-0.95L78.69-0.95Q74.02 1.46 68.98 1.46L68.98 1.46L68.98 1.46Q63.95 1.46 60.99 0.36L60.99 0.36L60.99 0.36Q58.03-0.73 56.06-2.77L56.06-2.77L56.06-2.77Q52.19-6.64 52.19-13.72L52.19-13.72L52.19-13.72Q52.19-24.75 58.18-31.46L58.18-31.46L58.18-31.46Q64.60-38.69 75.77-38.69L75.77-38.69L75.77-38.69Q82.71-38.69 86.14-35.77L86.14-35.77L86.14-35.77Q88.69-33.58 88.69-30.00L88.69-30.00L88.69-30.00Q88.69-17.15 66.50-17.15L66.50-17.15L66.50-17.15Q66.21-15.26 66.21-13.65L66.21-13.65L66.21-13.65Q66.21-10.29 67.71-9.02L67.71-9.02L67.71-9.02Q69.20-7.74 71.98-7.74L71.98-7.74L71.98-7.74Q74.75-7.74 77.71-9.02L77.71-9.02L77.71-9.02Q80.66-10.29 81.91-12.34ZM67.01-20.29L67.01-20.29L67.01-20.29Q72.20-20.29 75.19-23.51L75.19-23.51L75.19-23.51Q78.18-26.57 78.18-31.46L78.18-31.46L78.18-31.46Q78.18-33.14 77.56-34.05L77.56-34.05L77.56-34.05Q76.94-34.97 75.70-34.97L75.70-34.97L75.70-34.97Q74.46-34.97 73.40-34.49L73.40-34.49L73.40-34.49Q72.34-34.02 71.25-32.41L71.25-32.41L71.25-32.41Q68.55-28.76 67.01-20.29ZM119.65-42.34L119.65-42.34L119.65-42.34Q120.67-44.09 120.67-45.99L120.67-45.99L120.67-45.99Q120.67-49.35 118.62-49.35L118.62-49.35L118.62-49.35Q115.49-49.35 114.17-42.92L114.17-42.92L113.08-37.23L119.72-37.23L119.28-33.95L112.42-33.95L105.85 0L91.10 1.46L98.11-33.95L92.93-33.95L93.59-37.23L98.70-37.23L100.23-43.00L100.23-43.00Q101.54-48.33 107.16-50.81L107.16-50.81L107.16-50.81Q111.25-52.56 118.11-52.56L118.11-52.56L118.11-52.56Q124.98-52.56 128.04-50.81L128.04-50.81L128.04-50.81Q131.11-49.06 131.11-46.72L131.11-46.72L131.11-46.72Q131.11-44.38 129.28-42.92L129.28-42.92L129.28-42.92Q127.46-41.46 125.41-41.46L125.41-41.46L125.41-41.46Q121.40-41.46 119.65-42.34ZM142.86-4.01L142.86-4.01L142.86-4.01Q140.60 1.46 133.37 1.46L133.37 1.46L133.37 1.46Q129.65 1.46 127.31-1.09L127.31-1.09L127.31-1.09Q125.34-3.36 125.34-5.62L125.34-5.62L125.34-5.62Q125.34-11.53 128.04-23.07L128.04-23.07L130.74-37.23L145.56-38.69L141.11-15.62L141.11-15.62Q139.87-10.22 139.87-8.32L139.87-8.32L139.87-8.32Q139.87-4.16 142.86-4.01ZM132.06-47.38L132.06-47.38L132.06-47.38Q132.06-50.22 134.43-51.76L134.43-51.76L134.43-51.76Q136.80-53.29 140.23-53.29L140.23-53.29L140.23-53.29Q143.66-53.29 145.74-51.76L145.74-51.76L145.74-51.76Q147.82-50.22 147.82-47.38L147.82-47.38L147.82-47.38Q147.82-44.53 145.53-43.07L145.53-43.07L145.53-43.07Q143.23-41.61 139.79-41.61L139.79-41.61L139.79-41.61Q136.36-41.61 134.21-43.07L134.21-43.07L134.21-43.07Q132.06-44.53 132.06-47.38ZM211.48-30.29L211.48-30.29L211.48-30.29Q211.48 0.80 177.75 0.80L177.75 0.80L177.75 0.80Q172.35 0.80 163.45-0.51L163.45-0.51L171.62-43.65L171.62-43.65Q172.21-46.57 172.57-48.25L172.57-48.25L172.57-48.25Q183.67-49.06 188.60-49.06L188.60-49.06L188.60-49.06Q193.52-49.06 198.05-48.03L198.05-48.03L198.05-48.03Q202.57-47.01 205.57-44.75L205.57-44.75L205.57-44.75Q211.48-40.30 211.48-30.29ZM196.44-33.00L196.44-33.00L196.44-33.00Q196.44-43.87 188.63-43.87L188.63-43.87L187.90-43.87L187.90-43.87Q187.54-43.87 187.17-43.80L187.17-43.80L179.65-4.60L179.65-4.60Q179.94-4.45 180.24-4.45L180.24-4.45L180.82-4.45L180.82-4.45Q183.52-4.45 186.33-6.13L186.33-6.13L186.33-6.13Q189.14-7.81 191.33-11.24L191.33-11.24L191.33-11.24Q196.44-19.20 196.44-33.00ZM244.77-12.34L244.77-12.34L244.77-12.34Q246.59-11.10 246.59-8.36L246.59-8.36L246.59-8.36Q246.59-5.62 245.21-3.87L245.21-3.87L245.21-3.87Q243.82-2.12 241.56-0.95L241.56-0.95L241.56-0.95Q236.88 1.46 231.85 1.46L231.85 1.46L231.85 1.46Q226.81 1.46 223.85 0.36L223.85 0.36L223.85 0.36Q220.90-0.73 218.93-2.77L218.93-2.77L218.93-2.77Q215.06-6.64 215.06-13.72L215.06-13.72L215.06-13.72Q215.06-24.75 221.04-31.46L221.04-31.46L221.04-31.46Q227.47-38.69 238.64-38.69L238.64-38.69L238.64-38.69Q245.57-38.69 249.00-35.77L249.00-35.77L249.00-35.77Q251.56-33.58 251.56-30.00L251.56-30.00L251.56-30.00Q251.56-17.15 229.37-17.15L229.37-17.15L229.37-17.15Q229.07-15.26 229.07-13.65L229.07-13.65L229.07-13.65Q229.07-10.29 230.57-9.02L230.57-9.02L230.57-9.02Q232.07-7.74 234.84-7.74L234.84-7.74L234.84-7.74Q237.61-7.74 240.57-9.02L240.57-9.02L240.57-9.02Q243.53-10.29 244.77-12.34ZM229.88-20.29L229.88-20.29L229.88-20.29Q235.06-20.29 238.05-23.51L238.05-23.51L238.05-23.51Q241.05-26.57 241.05-31.46L241.05-31.46L241.05-31.46Q241.05-33.14 240.43-34.05L240.43-34.05L240.43-34.05Q239.81-34.97 238.56-34.97L238.56-34.97L238.56-34.97Q237.32-34.97 236.26-34.49L236.26-34.49L236.26-34.49Q235.21-34.02 234.11-32.41L234.11-32.41L234.11-32.41Q231.41-28.76 229.88-20.29ZM259.22-30.51L259.22-30.51L259.22-30.51Q261.70-34.02 265.46-36.35L265.46-36.35L265.46-36.35Q269.22-38.69 273.82-38.69L273.82-38.69L273.82-38.69Q278.42-38.69 280.61-37.23L280.61-37.23L294.92-38.69L289.96-10.66L289.96-10.66Q287.40 3.65 282.00 9.27L282.00 9.27L282.00 9.27Q276.82 14.60 266.74 14.60L266.74 14.60L266.74 14.60Q259.08 14.60 254.70 12.19L254.70 12.19L254.70 12.19Q250.32 9.78 250.32 5.77L250.32 5.77L250.32 5.77Q250.32 2.77 252.58 1.06L252.58 1.06L252.58 1.06Q254.84-0.66 258.35-0.66L258.35-0.66L258.35-0.66Q261.41-0.66 263.75 0.73L263.75 0.73L263.75 0.73Q265.14 1.46 265.79 2.48L265.79 2.48L265.79 2.48Q264.11 3.94 264.11 6.35L264.11 6.35L264.11 6.35Q264.11 9.49 267.03 9.49L267.03 9.49L267.03 9.49Q271.92 9.49 274.70-2.04L274.70-2.04L274.70-2.04Q275.50-5.18 276.16-8.32L276.16-8.32L276.16-8.32Q272.87-4.31 265.43-4.31L265.43-4.31L265.43-4.31Q260.25-4.31 257.25-6.79L257.25-6.79L257.25-6.79Q254.26-9.27 254.26-15.11L254.26-15.11L254.26-15.11Q254.26-18.76 255.50-22.89L255.50-22.89L255.50-22.89Q256.74-27.01 259.22-30.51ZM268.71-14.89L268.71-14.89L268.71-14.89Q268.71-9.93 271.27-9.93L271.27-9.93L271.27-9.93Q273.02-9.93 274.70-11.83L274.70-11.83L274.70-11.83Q276.01-13.36 276.52-15.62L276.52-15.62L280.25-34.38L280.25-34.38Q279.88-34.46 279.52-34.60L279.52-34.60L279.52-34.60Q278.79-34.89 277.84-34.89L277.84-34.89L277.84-34.89Q273.38-34.89 270.76-27.59L270.76-27.59L270.76-27.59Q268.71-21.90 268.71-14.89ZM327.33-12.34L327.33-12.34L327.33-12.34Q329.16-11.10 329.16-8.36L329.16-8.36L329.16-8.36Q329.16-5.62 327.77-3.87L327.77-3.87L327.77-3.87Q326.38-2.12 324.12-0.95L324.12-0.95L324.12-0.95Q319.45 1.46 314.41 1.46L314.41 1.46L314.41 1.46Q309.37 1.46 306.42 0.36L306.42 0.36L306.42 0.36Q303.46-0.73 301.49-2.77L301.49-2.77L301.49-2.77Q297.62-6.64 297.62-13.72L297.62-13.72L297.62-13.72Q297.62-24.75 303.61-31.46L303.61-31.46L303.61-31.46Q310.03-38.69 321.20-38.69L321.20-38.69L321.20-38.69Q328.13-38.69 331.57-35.77L331.57-35.77L331.57-35.77Q334.12-33.58 334.12-30.00L334.12-30.00L334.12-30.00Q334.12-17.15 311.93-17.15L311.93-17.15L311.93-17.15Q311.64-15.26 311.64-13.65L311.64-13.65L311.64-13.65Q311.64-10.29 313.13-9.02L313.13-9.02L313.13-9.02Q314.63-7.74 317.40-7.74L317.40-7.74L317.40-7.74Q320.18-7.74 323.13-9.02L323.13-9.02L323.13-9.02Q326.09-10.29 327.33-12.34ZM312.44-20.29L312.44-20.29L312.44-20.29Q317.62-20.29 320.62-23.51L320.62-23.51L320.62-23.51Q323.61-26.57 323.61-31.46L323.61-31.46L323.61-31.46Q323.61-33.14 322.99-34.05L322.99-34.05L322.99-34.05Q322.37-34.97 321.13-34.97L321.13-34.97L321.13-34.97Q319.89-34.97 318.83-34.49L318.83-34.49L318.83-34.49Q317.77-34.02 316.67-32.41L316.67-32.41L316.67-32.41Q313.97-28.76 312.44-20.29ZM367.48 1.46L367.48 1.46L367.48 1.46Q358.65 1.46 358.65-5.40L358.65-5.40L358.65-5.40Q358.72-7.30 359.31-10.51L359.31-10.51L360.62-17.23L360.62-17.23Q362.59-26.72 362.59-28.83L362.59-28.83L362.59-28.83Q362.59-33.07 360.11-33.07L360.11-33.07L360.11-33.07Q355.95-33.07 353.76-22.19L353.76-22.19L349.45 0L334.78 1.46L342.37-37.30L354.34-38.69L353.17-31.54L353.17-31.54Q356.60-38.69 367.12-38.69L367.12-38.69L367.12-38.69Q372.23-38.69 374.38-36.54L374.38-36.54L374.38-36.54Q376.53-34.38 376.53-29.56L376.53-29.56L376.53-29.56Q376.53-25.04 374.20-14.45L374.20-14.45L374.20-14.45Q373.10-9.71 373.10-7.92L373.10-7.92L373.10-7.92Q373.10-6.13 374.09-5.11L374.09-5.11L374.09-5.11Q375.07-4.09 376.53-3.94L376.53-3.94L376.53-3.94Q375.80-1.46 373.29 0L373.29 0L373.29 0Q370.77 1.46 367.48 1.46ZM404.20-25.62L404.20-25.62L404.20-25.62Q405.22-28.32 405.22-30.66L405.22-30.66L405.22-30.66Q405.22-34.97 401.72-34.97L401.72-34.97L401.72-34.97Q399.89-34.97 398.40-33.32L398.40-33.32L398.40-33.32Q396.90-31.68 396.90-29.64L396.90-29.64L396.90-29.64Q396.90-28.18 398.07-27.01L398.07-27.01L398.07-27.01Q399.75-25.40 404.05-22.78L404.05-22.78L404.05-22.78Q408.36-20.15 410.00-17.99L410.00-17.99L410.00-17.99Q411.65-15.84 411.65-12.88L411.65-12.88L411.65-12.88Q411.65-9.93 410.22-7.23L410.22-7.23L410.22-7.23Q408.80-4.53 406.25-2.63L406.25-2.63L406.25-2.63Q400.77 1.46 392.01 1.46L392.01 1.46L392.01 1.46Q387.26 1.46 383.62-1.02L383.62-1.02L383.62-1.02Q379.96-3.43 379.96-6.28L379.96-6.28L379.96-6.28Q379.96-9.13 382.05-10.80L382.05-10.80L382.05-10.80Q384.13-12.48 387.19-12.48L387.19-12.48L387.19-12.48Q390.26-12.48 392.16-11.31L392.16-11.31L392.16-11.31Q391.21-8.91 391.21-7.30L391.21-7.30L391.21-7.30Q391.21-2.48 395.29-2.48L395.29-2.48L395.29-2.48Q397.05-2.48 398.21-3.58L398.21-3.58L398.21-3.58Q399.38-4.67 399.38-6.57L399.38-6.57L399.38-6.57Q399.38-10.29 393.10-14.23L393.10-14.23L393.10-14.23Q388.00-17.59 386.83-18.91L386.83-18.91L386.83-18.91Q384.86-21.24 384.86-24.16L384.86-24.16L384.86-24.16Q384.86-27.08 386.24-29.86L386.24-29.86L386.24-29.86Q387.63-32.63 390.19-34.60L390.19-34.60L390.19-34.60Q395.51-38.69 404.78-38.69L404.78-38.69L404.78-38.69Q409.53-38.69 412.34-36.79L412.34-36.79L412.34-36.79Q415.15-34.89 415.15-31.68L415.15-31.68L415.15-31.68Q415.15-28.47 413.22-26.64L413.22-26.64L413.22-26.64Q411.28-24.82 407.78-24.82L407.78-24.82L407.78-24.82Q405.37-24.82 404.20-25.62Z" fill="#444"></path></g></g><style>text {
  font-size: 64px;
  font-family: Arial Black;
  dominant-baseline: central;
  text-anchor: middle;
}</style></svg>